<?xml version="1.0" encoding="utf-8"?>
<!-- Generator: Adobe Illustrator 21.0.0, SVG Export Plug-In . SVG Version: 6.00 Build 0)  -->
<svg version="1.1" id="Layer_1" xmlns="http://www.w3.org/2000/svg" xmlns:xlink="http://www.w3.org/1999/xlink" x="0px" y="0px"
	 width="150px" height="56.5px" viewBox="0 0 150 56.5" style="enable-background:new 0 0 150 56.5;" xml:space="preserve">
<style type="text/css">
	.st0{fill:#FFFFFF;}
	.st1{fill:#492D17;}
	.st2{fill:#176533;}
	.st3{fill:#E0A810;}
	.st4{fill:#016BB0;}
</style>
<g>
	<g>
		<path class="st0" d="M63.1,7.1h-3.5v-6h16.6C83.1,1.1,88,4.6,88,11c0,4.3-2.3,7-4.7,8.2v0.1c4.2,1.2,6.2,5.1,6.2,9
			c0,7.7-6.1,11.1-13.2,11.1h-9.6c-2.5,0-3.7-1.1-3.7-3.7V7.1z M76.2,16.7c3,0,4.7-2.2,4.7-4.9c0-2.8-1.6-4.8-4.8-4.8h-5.9v9.7H76.2
			z M71.3,33.5h5.5c3.5,0,5.4-2.3,5.4-5.6c0-3.2-2-5.5-5.4-5.5h-6.7v9.9C70.1,33,70.6,33.5,71.3,33.5z"/>
		<path class="st0" d="M95.9,29.2c0,0,3.9,4.5,9.3,4.5c2.9,0,5.5-1.6,5.5-4.5c0-6.5-18.1-6-18.1-18C92.6,5,98,0.4,105.4,0.4
			c4.5,0,11.4,2.1,11.4,7.6v3.6h-6.4V9.8c0-1.8-2.5-3-5.1-3c-3.2,0-5.6,1.7-5.6,4.1c0,6.5,18.1,5.2,18.1,17.8
			c0,6.1-4.7,11.3-12.8,11.3c-8.5,0-13.2-5.9-13.2-5.9L95.9,29.2z"/>
		<path class="st0" d="M123.5,7.1H120v-6h16.6c6.9,0,11.9,3.6,11.9,9.9c0,4.3-2.3,7-4.7,8.2v0.1c4.2,1.2,6.2,5.1,6.2,9
			c0,7.7-6.1,11.1-13.2,11.1h-9.6c-2.5,0-3.7-1.1-3.7-3.7V7.1z M136.6,16.7c3,0,4.7-2.2,4.7-4.9c0-2.8-1.6-4.8-4.8-4.8h-5.9v9.7
			H136.6z M131.8,33.5h5.5c3.5,0,5.4-2.3,5.4-5.6c0-3.2-2-5.5-5.4-5.5h-6.7v9.9C130.6,33,131,33.5,131.8,33.5z"/>
	</g>
	<path class="st0" d="M55.3,50c0,2.9-2.4,5.3-5.3,5.3H5.3C2.4,55.3,0,53,0,50V5.3C0,2.4,2.4,0,5.3,0H50c2.9,0,5.3,2.4,5.3,5.3V50z"
		/>
	<path class="st1" d="M16.8,53.5L16,54.3h17.2l-6.4-19.5c-0.1-0.2-0.1-0.4-0.3-0.5C26.4,34.1,26.2,34,26,34h-0.1
		c-0.1,0.1-0.2,0.1-0.4,0.1l-8.5,8L16.8,53.5z"/>
	<path class="st2" d="M20.8,28.5L1.1,22.1v17.2l0.6-0.6c0.1,0,0.2-0.1,0.3-0.2c0.1-0.1,0.2-0.1,0.3-0.1l10.5,0c0,0,0.1,0,0.3-0.1
		c0.1-0.1,0.2-0.1,0.3-0.2l7.8-8.4c0.1-0.1,0.1-0.2,0.1-0.4C21.3,28.9,21.1,28.6,20.8,28.5z"/>
	<path class="st3" d="M11.1,49c0-0.2-0.1-0.3-0.3-0.4c-0.2-0.1-0.3-0.1-0.4-0.1c-0.4,0-0.7,0.2-1,0.5c-0.2,0.3-0.5,0.6-0.7,0.7
		c-0.7,0.6-1.5,0.9-2.6,0.9c-0.9,0-1.4-0.4-1.4-1.3c0-0.4,0.1-0.9,0.2-1.3c0.1-0.4,0.4-0.8,0.6-1.2l1-1.1c0,0,0-0.1,0.1-0.1
		c0,0,0.1-0.1,0.1-0.1C6.9,45.1,7,45,7,44.9c0-0.2-0.1-0.3-0.2-0.4c-0.2-0.1-0.3-0.2-0.5-0.3l-5.2-1.3v6c0,2.9,2.4,5.3,5.3,5.3h6
		L11.1,49z"/>
	<path class="st4" d="M49,1.1H6.4c-2.9,0-5.3,2.4-5.3,5.3v9.5l32.9,0l9.2-9.8c0.6-0.7,1.5-1.2,2.5-1.6c1-0.4,1.9-0.5,2.9-0.5
		c0.6,0,1.2,0.1,1.7,0.4c0.5,0.3,0.9,0.8,1.1,1.5v1c0,0.8-0.1,1.6-0.4,2.6c-0.2,0.9-0.7,1.7-1.3,2.2l-9.9,9.5
		c-0.1,0.1-0.2,0.2-0.2,0.4c0,0.2,0,0.3,0,0.4l0,32.4H49c2.9,0,5.3-2.4,5.3-5.3V6.4C54.3,3.4,51.9,1.1,49,1.1z"/>
	<g>
		<path class="st0" d="M60.8,49.3H60c-0.3,0-0.4-0.1-0.4-0.4c0-0.2,0.1-0.4,0.4-0.4h0.8v-0.7c0-1.2,0.6-1.8,1.8-1.8
			c0.5,0,0.9,0.1,1.2,0.3c0.4,0.3,0.6,0.6,0.6,1.1c0,0.3-0.1,0.5-0.4,0.5c-0.2,0-0.3-0.1-0.4-0.3c-0.1-0.3-0.2-0.5-0.3-0.6
			c-0.1-0.2-0.4-0.3-0.9-0.3c-0.8,0-1.1,0.4-1.1,1.1v0.7h1.4c0.3,0,0.5,0.1,0.5,0.4c0,0.2-0.2,0.4-0.5,0.4h-1.4v4.5
			c0,0.3-0.1,0.4-0.4,0.4c-0.2,0-0.4-0.1-0.4-0.4L60.8,49.3L60.8,49.3z"/>
		<path class="st0" d="M67.2,53.5v-4.1h-1.1c-0.3,0-0.4-0.1-0.4-0.4c0-0.2,0.1-0.4,0.4-0.4h1.4c0.2,0,0.4,0.2,0.4,0.6
			c0.4-0.5,0.9-0.7,1.4-0.7c0.4,0,0.7,0.1,1,0.4c0.2,0.3,0.4,0.6,0.4,1c0,0.3-0.1,0.4-0.4,0.4c-0.1,0-0.2-0.1-0.3-0.3
			c-0.1-0.3-0.2-0.5-0.2-0.5c-0.1-0.2-0.3-0.3-0.6-0.3c-0.3,0-0.5,0.1-0.8,0.3c-0.1,0.1-0.3,0.3-0.6,0.6v3.3h1.3
			c0.3,0,0.4,0.1,0.4,0.3c0,0.2-0.1,0.4-0.4,0.4h-3.1c-0.3,0-0.4-0.1-0.4-0.4c0-0.2,0.1-0.4,0.4-0.4L67.2,53.5L67.2,53.5z"/>
		<path class="st0" d="M72.6,51.5v0.8c0,0.8,0.6,1.3,1.8,1.3c0.4,0,0.8,0,1.1-0.1c0.1,0,0.4-0.2,0.7-0.4c0.2-0.2,0.4-0.3,0.4-0.3
			c0.2,0,0.3,0.1,0.3,0.3c0,0.2-0.1,0.4-0.4,0.7c-0.5,0.4-1.2,0.6-2.1,0.6c-1.7,0-2.5-0.7-2.5-2v-2c0-0.5,0.2-0.8,0.5-1.2
			c0.5-0.4,1.1-0.6,2-0.6c1.6,0,2.4,0.8,2.4,2.4c0,0.4-0.2,0.6-0.5,0.6L72.6,51.5L72.6,51.5z M72.6,50.8h3.5c0-1.1-0.6-1.6-1.8-1.6
			c-0.4,0-0.8,0.1-1.2,0.3c-0.4,0.3-0.6,0.6-0.6,0.9V50.8z"/>
		<path class="st0" d="M78.8,51.5v0.8c0,0.8,0.6,1.3,1.8,1.3c0.4,0,0.8,0,1.1-0.1c0.1,0,0.4-0.2,0.7-0.4c0.2-0.2,0.4-0.3,0.4-0.3
			c0.2,0,0.3,0.1,0.3,0.3c0,0.2-0.1,0.4-0.4,0.7c-0.5,0.4-1.2,0.6-2.1,0.6c-1.7,0-2.5-0.7-2.5-2v-2c0-0.5,0.2-0.8,0.5-1.2
			c0.5-0.4,1.1-0.6,2-0.6c1.6,0,2.4,0.8,2.4,2.4c0,0.4-0.2,0.6-0.5,0.6L78.8,51.5L78.8,51.5z M78.8,50.8h3.5c0-1.1-0.6-1.6-1.8-1.6
			c-0.4,0-0.8,0.1-1.2,0.3c-0.4,0.3-0.6,0.6-0.6,0.9V50.8z"/>
		<path class="st0" d="M84.3,52v-3.1c0-1.6,0.9-2.4,2.6-2.4c0.7,0,1.2,0.2,1.7,0.5c0.5,0.4,0.7,0.9,0.7,1.5c0,0.3-0.1,0.5-0.4,0.5
			c-0.2,0-0.3-0.1-0.4-0.4c0-0.2-0.1-0.5-0.3-0.7c-0.2-0.4-0.7-0.6-1.4-0.6c-0.6,0-1.1,0.2-1.4,0.5c-0.3,0.3-0.4,0.8-0.4,1.4v2.6
			c0,0.7,0.1,1.1,0.4,1.4c0.3,0.3,0.8,0.5,1.4,0.5c1,0,1.5-0.3,1.7-1c0.1-0.3,0.1-0.4,0.1-0.4c0.1-0.1,0.2-0.2,0.3-0.2
			c0.2,0,0.4,0.2,0.4,0.5c0,0.6-0.3,1.1-0.8,1.5c-0.4,0.3-0.9,0.4-1.6,0.4c-0.8,0-1.4-0.2-1.9-0.6C84.6,53.3,84.3,52.8,84.3,52z"/>
		<path class="st0" d="M90.5,52.4v-2c0-1.2,0.8-1.9,2.5-1.9s2.5,0.6,2.5,1.9v2c0,1.2-0.8,1.9-2.5,1.9C91.3,54.3,90.5,53.7,90.5,52.4
			 M94.7,52.4v-2c0-0.8-0.6-1.2-1.8-1.2c-1.1,0-1.7,0.4-1.7,1.2v2c0,0.8,0.6,1.2,1.8,1.1C94.1,53.6,94.7,53.2,94.7,52.4"/>
		<path class="st0" d="M100.9,53.6c-0.3,0.3-0.6,0.4-0.9,0.5c-0.3,0.1-0.6,0.2-1,0.2c-0.7,0-1.2-0.1-1.6-0.4
			c-0.5-0.3-0.7-0.8-0.7-1.4v-2.1c0-0.6,0.2-1.1,0.7-1.4c0.4-0.3,0.9-0.4,1.6-0.4c0.4,0,0.8,0,1,0.1c0.3,0.1,0.6,0.3,0.9,0.5v-2.5
			c0-0.3,0.1-0.5,0.3-0.5c0.2,0,0.4,0.2,0.4,0.5v7.3c0,0.3-0.1,0.4-0.3,0.4c-0.1,0-0.2-0.1-0.3-0.2
			C100.9,53.9,100.9,53.8,100.9,53.6z M100.8,52.8v-2.8c-0.4-0.3-0.6-0.4-0.8-0.5c-0.3-0.1-0.6-0.2-1-0.2c-0.5,0-0.8,0.1-1.1,0.3
			c-0.4,0.2-0.5,0.5-0.5,0.9v2c0,0.4,0.2,0.7,0.6,1c0.3,0.2,0.7,0.3,1.1,0.3c0.4,0,0.7-0.1,1-0.2C100.3,53.2,100.5,53,100.8,52.8z"
			/>
		<path class="st0" d="M103.6,51.5v0.8c0,0.8,0.6,1.3,1.8,1.3c0.4,0,0.8,0,1.1-0.1c0.1,0,0.4-0.2,0.7-0.4c0.2-0.2,0.4-0.3,0.4-0.3
			c0.2,0,0.3,0.1,0.3,0.3c0,0.2-0.1,0.4-0.4,0.7c-0.5,0.4-1.2,0.6-2.1,0.6c-1.7,0-2.5-0.7-2.5-2v-2c0-0.5,0.2-0.8,0.5-1.2
			c0.5-0.4,1.1-0.6,2-0.6c1.6,0,2.4,0.8,2.4,2.4c0,0.4-0.2,0.6-0.5,0.6L103.6,51.5L103.6,51.5z M103.6,50.8h3.5
			c0-1.1-0.6-1.6-1.8-1.6c-0.4,0-0.8,0.1-1.2,0.3c-0.4,0.3-0.6,0.6-0.6,0.9V50.8z"/>
		<path class="st0" d="M109.1,52v-3.1c0-1.6,0.9-2.4,2.6-2.4c0.7,0,1.2,0.2,1.7,0.5c0.5,0.4,0.7,0.9,0.7,1.5c0,0.3-0.1,0.5-0.4,0.5
			c-0.2,0-0.3-0.1-0.4-0.4c0-0.2-0.1-0.5-0.3-0.7c-0.2-0.4-0.7-0.6-1.4-0.6c-0.6,0-1.1,0.2-1.4,0.5c-0.3,0.3-0.4,0.8-0.4,1.4v2.6
			c0,0.7,0.1,1.1,0.4,1.4c0.3,0.3,0.8,0.5,1.4,0.5c1,0,1.5-0.3,1.7-1c0.1-0.3,0.1-0.4,0.1-0.4c0.1-0.1,0.2-0.2,0.3-0.2
			c0.2,0,0.4,0.2,0.4,0.5c0,0.6-0.3,1.1-0.8,1.5c-0.4,0.3-0.9,0.4-1.6,0.4c-0.8,0-1.4-0.2-1.9-0.6C109.4,53.3,109.1,52.8,109.1,52z"
			/>
		<path class="st0" d="M119.2,53.6c-0.4,0.3-0.6,0.4-0.8,0.5c-0.3,0.1-0.6,0.2-1,0.2c-0.6,0-1.1-0.1-1.5-0.4
			c-0.4-0.3-0.7-0.7-0.7-1.3c0-0.6,0.2-1,0.7-1.3c0.4-0.3,0.9-0.4,1.5-0.4c0.5,0,1,0.1,1.7,0.3v-0.9c0-0.4-0.2-0.7-0.6-0.9
			c-0.3-0.1-0.6-0.2-1-0.2c-0.9,0-1.4,0.3-1.5,0.8c0,0.2-0.1,0.4-0.1,0.4c-0.1,0.1-0.2,0.2-0.3,0.2c-0.3,0-0.4-0.1-0.4-0.4
			c0-0.4,0.1-0.7,0.4-1c0.4-0.4,1-0.6,1.9-0.6c0.7,0,1.3,0.1,1.6,0.4c0.4,0.3,0.6,0.8,0.6,1.5v2.5c0,0.3,0.1,0.5,0.2,0.6
			c0,0,0.1,0.1,0.3,0.2c0.1,0.1,0.2,0.2,0.2,0.3c0,0.2-0.1,0.3-0.3,0.3c-0.1,0-0.2,0-0.3-0.1c-0.3-0.1-0.5-0.2-0.5-0.2
			C119.3,53.9,119.3,53.8,119.2,53.6z M119.2,52.8v-1c-0.6-0.2-1.1-0.3-1.6-0.3c-1.1,0-1.6,0.3-1.6,1c0,0.4,0.2,0.6,0.5,0.8
			c0.3,0.1,0.6,0.2,1,0.2c0.3,0,0.7-0.1,0.9-0.2C118.6,53.3,118.9,53.1,119.2,52.8z"/>
		<path class="st0" d="M122,49.1c0.2-0.2,0.3-0.4,0.5-0.4c0.2-0.1,0.4-0.2,0.6-0.2c0.4,0,0.7,0.2,1,0.6c0.2-0.2,0.4-0.4,0.5-0.5
			c0.2-0.1,0.4-0.1,0.7-0.1c0.9,0,1.3,0.4,1.3,1.2v4c0,0.3-0.1,0.5-0.4,0.5c-0.2,0-0.4-0.2-0.4-0.5V50c0-0.5-0.2-0.8-0.6-0.8
			c-0.3,0-0.6,0.2-0.9,0.6v4c0,0.3-0.1,0.5-0.4,0.5c-0.2,0-0.4-0.2-0.4-0.5v-3.7c0-0.6-0.2-0.9-0.7-0.9c-0.3,0-0.6,0.2-0.9,0.6v4
			c0,0.3-0.1,0.5-0.4,0.5c-0.2,0-0.4-0.2-0.4-0.5v-4.9c0-0.2,0.1-0.4,0.3-0.4c0.1,0,0.2,0.1,0.3,0.2C122,48.8,122,49,122,49.1z"/>
		<path class="st0" d="M128.4,49.1c0.6-0.4,1.2-0.6,1.9-0.6c1.5,0,2.3,0.6,2.3,1.9v2.1c0,0.6-0.2,1-0.6,1.4
			c-0.4,0.3-0.9,0.5-1.5,0.5c-0.8,0-1.4-0.2-2-0.6V56c0,0.4-0.1,0.5-0.4,0.5c-0.2,0-0.4-0.2-0.4-0.5v-7c0-0.4,0.1-0.5,0.3-0.5
			c0.1,0,0.2,0.1,0.3,0.2C128.3,48.9,128.4,49,128.4,49.1z M128.4,52.9c0.5,0.5,1.1,0.7,1.9,0.7c0.5,0,0.8-0.1,1.1-0.3
			c0.3-0.2,0.5-0.5,0.5-0.9v-2.1c0-0.4-0.2-0.7-0.5-0.9c-0.3-0.1-0.7-0.2-1.1-0.2c-0.4,0-0.8,0.1-1,0.2c-0.2,0.1-0.5,0.3-0.8,0.6
			V52.9z"/>
		<path class="st0" d="M135,50.9c0-1.6,0.5-2.9,1.6-4.2c0.4-0.5,0.7-0.7,0.9-0.7c0.1,0,0.2,0,0.2,0.1c0.1,0.1,0.1,0.1,0.1,0.2
			c0,0.1-0.1,0.3-0.4,0.6c-1.1,1.1-1.7,2.4-1.7,4c0,1.8,0.6,3.2,1.8,4.3c0.2,0.2,0.4,0.4,0.4,0.5c0,0.1,0,0.2-0.1,0.2
			c-0.1,0.1-0.1,0.1-0.2,0.1c-0.3,0-0.7-0.3-1.1-0.9C135.5,54,135,52.6,135,50.9z"/>
		<path class="st0" d="M150,51.3c0,1.6-0.5,2.9-1.6,4.2c-0.4,0.5-0.7,0.7-0.9,0.7c-0.1,0-0.2,0-0.2-0.1c-0.1-0.1-0.1-0.1-0.1-0.2
			c0-0.1,0.1-0.3,0.4-0.6c1.1-1.1,1.7-2.4,1.7-4c0-1.8-0.6-3.2-1.8-4.3c-0.2-0.2-0.4-0.4-0.4-0.5c0-0.1,0-0.2,0.1-0.2
			c0.1-0.1,0.1-0.1,0.2-0.1c0.3,0,0.7,0.3,1.1,0.9C149.5,48.2,150,49.6,150,51.3z"/>
		<path class="st0" d="M145.9,55.8h-6.9c-0.2,0-0.4-0.2-0.4-0.4c0-0.2,0.2-0.4,0.4-0.4h6.9c0.2,0,0.4,0.2,0.4,0.4
			C146.4,55.6,146.2,55.8,145.9,55.8"/>
		<path class="st0" d="M141.1,46.9c0,0,0.6,0.4,0.6,1.1c0,1.2-1.7,2.6-1.7,3.9c0,1.4,1.1,2.3,2.1,2.6c0.1,0,0.2-0.1,0-0.2
			c-0.4-0.1-0.9-0.6-0.9-1.5c0-0.8,0.8-1.1,1.1-1.5c0.3-0.4,0.2-0.9,0.1-1c-0.2-0.1-0.1-0.3,0.3-0.1c0.3,0.2,0.6,0.7,0.5,1.1
			c-0.1,0.5,0,0.8,0.3,0.9c0.3,0,0.6-0.1,0.5-0.4c0-0.3-0.2-0.5-0.1-0.5c0.2,0,0.6,0.5,0.6,1.2c0,0.8-0.6,1.3-0.8,1.5
			c-0.1,0.1,0,0.3,0.2,0.2c0.1,0,0.2-0.1,0.3-0.2c0.5-0.4,1.3-1.1,1.3-2.4c0-1.4-0.5-2-1.1-2.5c-0.5-0.5-0.7-0.4-0.5-0.1
			c0.5,0.8,0.2,1-0.2,1c-0.4,0-0.4-0.9-0.6-1.5c-0.3-1.5-1.7-1.7-1.9-1.7C141,46.6,140.8,46.8,141.1,46.9"/>
	</g>
</g>
</svg>
